# xmcd CD database file
#
# Track frame offsets:
#	150
#	18582
#	35295
#	51556
#	68942
#	81814
#	96547
#	111231
#	127672
#	142909
#
# Disc length: 2140 seconds
#
# Revision: 0
# Processed by: cddbd v1.5.2PL0 Copyright (c) Steve Scherf et al.
# Submitted via: CDex 1.51
#
DISCID=87085a0a
DTITLE=Dustin Evans - Good Ol' Days to Come
DYEAR=2004
DGENRE=Country
TTITLE0=Here
TTITLE1=Mama was a train
TTITLE2=Ships
TTITLE3=Home away from lonely
TTITLE4=10
TTITLE5=What if
TTITLE6=Just a thought
TTITLE7=One for the road
TTITLE8=Good Ol' Days to Come
TTITLE9=How the Country sound to me
EXTD=YEAR: 2004
EXTT0=
EXTT1=
EXTT2=
EXTT3=
EXTT4=
EXTT5=
EXTT6=
EXTT7=
EXTT8=
EXTT9=
PLAYORDER=
